#tb 0: 1/44100
#media_type 0: audio
#codec_id 0: pcm_s16le
#sample_rate 0: 44100
#channel_layout_name 0: stereo
0,        -44,        -44,     4096,    16384, 0x7d28b665
0,       4052,       4052,     4096,    16384, 0xda58f4db
0,       8148,       8148,     4096,    16384, 0xb0e4f6ed
0,      12244,      12244,     4096,    16384, 0xa64af55f
0,      16340,      16340,     4096,    16384, 0xc5e5f289
0,      20436,      20436,     4096,    16384, 0x6cd9f89d
0,      24532,      24532,     4096,    16384, 0x8242f48f
0,      28628,      28628,     4096,    16384, 0x113af607
0,      32724,      32724,     4096,    16384, 0xec62f4f9
0,      36820,      36820,     4096,    16384, 0xda58f4db
0,      40916,      40916,     4096,    16384, 0x378ff50f
0,      45012,      45012,     4096,    16384, 0xa82efdfb
0,      49108,      49108,     4096,    16384, 0xea8df021
0,      53204,      53204,     4096,    16384, 0x0198eb7f
0,      57300,      57300,     4096,    16384, 0xea83093c
0,      61396,      61396,     4096,    16384, 0x40a6f0c1
0,      65492,      65492,     4096,    16384, 0xd7bbf27b
0,      69588,      69588,     4096,    16384, 0x0f1bfd09
0,      73684,      73684,     4096,    16384, 0x16c6f50b
0,      77780,      77780,     4096,    16384, 0x7b9006e2
0,      81876,      81876,     4096,    16384, 0x463d3a82
0,      85972,      85972,     4096,    16384, 0xe60105de
0,      90068,      90068,     4096,    16384, 0x8061acfb
0,      94164,      94164,     4096,    16384, 0x78fa13bc
0,      98260,      98260,     4096,    16384, 0xfc1ef251
0,     102356,     102356,     4096,    16384, 0x00861490
0,     106452,     106452,     4096,    16384, 0x2286fcf7
0,     110548,     110548,     4096,    16384, 0xdc46febf
0,     114644,     114644,     4096,    16384, 0x94b7be6b
0,     118740,     118740,     4096,    16384, 0x0b78f627
0,     122836,     122836,     4096,    16384, 0x22eba19b
0,     126932,     126932,     4096,    16384, 0x58e2e45d
0,     131028,     131028,     4096,    16384, 0x3273e18d
0,     135124,     135124,     4096,    16384, 0x3680e703
0,     139220,     139220,     4096,    16384, 0xf224ef5c
0,     143316,     143316,     4096,    16384, 0x78beea2a
0,     147412,     147412,     4096,    16384, 0xbd88e89c
0,     151508,     151508,     4096,    16384, 0x2c0aea8a
0,     155604,     155604,     4096,    16384, 0x7c5ff12d
0,     159700,     159700,     4096,    16384, 0x4750f525
0,     163796,     163796,     4096,    16384, 0x7498f23a
0,     167892,     167892,     4096,    16384, 0x758cf40c
0,     171988,     171988,     4096,    16384, 0x2f02f0be
0,     176084,     176084,     4096,    16384, 0xb103da88
0,     180180,     180180,     4096,    16384, 0xce988dd9
0,     184276,     184276,     4096,    16384, 0x82633c65
0,     188372,     188372,     4096,    16384, 0xd167937a
0,     192468,     192468,     4096,    16384, 0xe26d4ca0
0,     196564,     196564,     4096,    16384, 0x48348985
0,     200660,     200660,     4096,    16384, 0x8a244428
0,     204756,     204756,     4096,    16384, 0x1f6c9938
0,     208852,     208852,     4096,    16384, 0xd4924c80
0,     212948,     212948,     4096,    16384, 0xe3c7a0b2
0,     217044,     217044,     4096,    16384, 0x0a724c0d
0,     221140,     221140,     4096,    16384, 0x7e309d02
0,     225236,     225236,     4096,    16384, 0xa0aa5698
0,     229332,     229332,     4096,    16384, 0x9832927e
0,     233428,     233428,     4096,    16384, 0x956d4807
0,     237524,     237524,     4096,    16384, 0x45aa9a38
0,     241620,     241620,     4096,    16384, 0xd4924c80
0,     245716,     245716,     4096,    16384, 0xe3c7a0b2
0,     249812,     249812,     4096,    16384, 0x0a724c0d
0,     253908,     253908,     4096,    16384, 0x7e309d02
0,     258004,     258004,     4096,    16384, 0xa0aa5698
0,     262100,     262100,     2456,     9824, 0xf154801d
0,     262144,     262144,       44,      176, 0xda972b0a
